<svg xmlns="http://www.w3.org/2000/svg" width="570.785" height="650.534" viewBox="0 0 570.785 650.534">
  <path id="Path_4081" data-name="Path 4081" d="M3731.159,1524.435c-5.912,2.095-52.95,39.342-74.207,51.266,0,0-161.348-110.945-328.908-183.494-.165.248-.338.527-.338.527s223.975,134.694,231.379,256.8c6.715,110.745-134.808,229.194-209.386,289.045-45.354,36.4-92.722,70.767-141.458,102.5l1.236,1.658c136.2-84.64,282.458-170.861,400.189-281.723,41.989-39.524,83.213-79.709,103.961-134.767,8.146-21.605,19.443-66.472,19.443-66.472l45.955-5.723s-27.575-17.3-47.868-29.621" transform="translate(-3208.242 -1392.207)" fill="#f6f6f6"/>
</svg>
